<mxfile host="app.diagrams.net" modified="2022-02-22T17:58:33.851Z" agent="5.0 (Windows NT 10.0; Win64; x64) AppleWebKit/537.36 (KHTML, like Gecko) Chrome/97.0.4692.99 Safari/537.36" etag="2-lWYVY3yxSUQ113R5CS" version="16.6.2" type="github">
  <diagram id="6zxqFR7e8xJIoDrG1SAv" name="Page-1">
    <mxGraphModel dx="1574" dy="880" grid="1" gridSize="10" guides="1" tooltips="1" connect="1" arrows="1" fold="1" page="1" pageScale="1" pageWidth="827" pageHeight="1169" math="0" shadow="0">
      <root>
        <object label="" id="0">
          <mxCell />
        </object>
        <mxCell id="1" parent="0" />
        <mxCell id="C9En-ip5KXFG1CEFs1mp-4" value="Barrière" style="shape=umlActor;verticalLabelPosition=bottom;verticalAlign=top;html=1;outlineConnect=0;" vertex="1" parent="1">
          <mxGeometry x="520" y="740" width="40" height="80" as="geometry" />
        </mxCell>
        <mxCell id="C9En-ip5KXFG1CEFs1mp-5" value="Détecteur Badge" style="shape=umlActor;verticalLabelPosition=bottom;verticalAlign=top;html=1;outlineConnect=0;" vertex="1" parent="1">
          <mxGeometry x="190" y="20" width="40" height="80" as="geometry" />
        </mxCell>
        <mxCell id="C9En-ip5KXFG1CEFs1mp-6" value="Détecteur voiture" style="shape=umlActor;verticalLabelPosition=bottom;verticalAlign=top;html=1;outlineConnect=0;" vertex="1" parent="1">
          <mxGeometry x="40" y="20" width="40" height="80" as="geometry" />
        </mxCell>
        <mxCell id="C9En-ip5KXFG1CEFs1mp-11" value="" style="rounded=0;whiteSpace=wrap;html=1;" vertex="1" parent="1">
          <mxGeometry x="70" y="160" width="660" height="540" as="geometry" />
        </mxCell>
        <mxCell id="C9En-ip5KXFG1CEFs1mp-14" value="Rapprocher de la station" style="ellipse;whiteSpace=wrap;html=1;" vertex="1" parent="1">
          <mxGeometry x="96" y="316" width="166" height="80" as="geometry" />
        </mxCell>
        <mxCell id="C9En-ip5KXFG1CEFs1mp-16" value="Détecter le badge" style="ellipse;whiteSpace=wrap;html=1;" vertex="1" parent="1">
          <mxGeometry x="299" y="316" width="180" height="80" as="geometry" />
        </mxCell>
        <mxCell id="C9En-ip5KXFG1CEFs1mp-17" value="Ouverture voie" style="ellipse;whiteSpace=wrap;html=1;" vertex="1" parent="1">
          <mxGeometry x="519" y="316" width="180" height="80" as="geometry" />
        </mxCell>
        <mxCell id="C9En-ip5KXFG1CEFs1mp-18" value="Controle payage" style="ellipse;whiteSpace=wrap;html=1;" vertex="1" parent="1">
          <mxGeometry x="306" y="180" width="166" height="80" as="geometry" />
        </mxCell>
        <mxCell id="C9En-ip5KXFG1CEFs1mp-19" value="" style="endArrow=none;html=1;rounded=0;exitX=0.229;exitY=0.063;exitDx=0;exitDy=0;exitPerimeter=0;" edge="1" parent="1" source="C9En-ip5KXFG1CEFs1mp-14">
          <mxGeometry width="50" height="50" relative="1" as="geometry">
            <mxPoint x="290" y="120" as="sourcePoint" />
            <mxPoint x="80" y="130" as="targetPoint" />
          </mxGeometry>
        </mxCell>
        <mxCell id="C9En-ip5KXFG1CEFs1mp-20" value="" style="endArrow=none;html=1;rounded=0;exitX=0.434;exitY=0.013;exitDx=0;exitDy=0;exitPerimeter=0;" edge="1" parent="1" source="C9En-ip5KXFG1CEFs1mp-14">
          <mxGeometry width="50" height="50" relative="1" as="geometry">
            <mxPoint x="162.9380000000001" y="330" as="sourcePoint" />
            <mxPoint x="200" y="130" as="targetPoint" />
          </mxGeometry>
        </mxCell>
        <mxCell id="C9En-ip5KXFG1CEFs1mp-30" value="&amp;lt;&amp;lt;include&amp;gt;&amp;gt;" style="html=1;verticalAlign=bottom;endArrow=open;dashed=1;endSize=8;rounded=0;exitX=0.446;exitY=0.988;exitDx=0;exitDy=0;exitPerimeter=0;" edge="1" parent="1" source="C9En-ip5KXFG1CEFs1mp-18" target="C9En-ip5KXFG1CEFs1mp-16">
          <mxGeometry x="0.0556" y="-11" relative="1" as="geometry">
            <mxPoint x="400" y="270" as="sourcePoint" />
            <mxPoint x="258.05600000000004" y="345.03999999999996" as="targetPoint" />
            <mxPoint as="offset" />
          </mxGeometry>
        </mxCell>
        <mxCell id="C9En-ip5KXFG1CEFs1mp-31" value="&amp;lt;&amp;lt;include&amp;gt;&amp;gt;" style="html=1;verticalAlign=bottom;endArrow=open;dashed=1;endSize=8;rounded=0;entryX=0.916;entryY=0.238;entryDx=0;entryDy=0;entryPerimeter=0;" edge="1" parent="1">
          <mxGeometry x="0.0556" y="-11" relative="1" as="geometry">
            <mxPoint x="346.999299341051" y="254.50057554127966" as="sourcePoint" />
            <mxPoint x="248.05600000000004" y="335.03999999999996" as="targetPoint" />
            <mxPoint as="offset" />
          </mxGeometry>
        </mxCell>
        <mxCell id="C9En-ip5KXFG1CEFs1mp-32" value="&amp;lt;&amp;lt;include&amp;gt;&amp;gt;" style="html=1;verticalAlign=bottom;endArrow=open;dashed=1;endSize=8;rounded=0;exitX=1;exitY=1;exitDx=0;exitDy=0;" edge="1" parent="1" source="C9En-ip5KXFG1CEFs1mp-18" target="C9En-ip5KXFG1CEFs1mp-17">
          <mxGeometry x="0.0556" y="-11" relative="1" as="geometry">
            <mxPoint x="638.9392993410511" y="235.46057554127967" as="sourcePoint" />
            <mxPoint x="539.9960000000001" y="315.99999999999994" as="targetPoint" />
            <mxPoint as="offset" />
          </mxGeometry>
        </mxCell>
        <mxCell id="C9En-ip5KXFG1CEFs1mp-38" value="" style="endArrow=none;html=1;rounded=0;entryX=0.5;entryY=1;entryDx=0;entryDy=0;" edge="1" parent="1" source="C9En-ip5KXFG1CEFs1mp-4" target="C9En-ip5KXFG1CEFs1mp-17">
          <mxGeometry width="50" height="50" relative="1" as="geometry">
            <mxPoint x="570.0040000000001" y="567.04" as="sourcePoint" />
            <mxPoint x="602" y="400" as="targetPoint" />
          </mxGeometry>
        </mxCell>
        <mxCell id="C9En-ip5KXFG1CEFs1mp-40" value="&amp;lt;&amp;lt;include&amp;gt;&amp;gt;" style="html=1;verticalAlign=bottom;endArrow=open;dashed=1;endSize=8;rounded=0;entryX=0.916;entryY=0.238;entryDx=0;entryDy=0;entryPerimeter=0;" edge="1" parent="1">
          <mxGeometry x="0.0556" y="-11" relative="1" as="geometry">
            <mxPoint x="397.939299341051" y="396.00057554127966" as="sourcePoint" />
            <mxPoint x="298.99600000000004" y="476.53999999999996" as="targetPoint" />
            <mxPoint as="offset" />
          </mxGeometry>
        </mxCell>
        <mxCell id="C9En-ip5KXFG1CEFs1mp-41" value="Lecture du badge" style="ellipse;whiteSpace=wrap;html=1;" vertex="1" parent="1">
          <mxGeometry x="170" y="480" width="180" height="80" as="geometry" />
        </mxCell>
        <mxCell id="C9En-ip5KXFG1CEFs1mp-43" value="" style="endArrow=open;endFill=1;endSize=12;html=1;rounded=0;exitX=0.5;exitY=1;exitDx=0;exitDy=0;" edge="1" parent="1" source="C9En-ip5KXFG1CEFs1mp-41" target="C9En-ip5KXFG1CEFs1mp-44">
          <mxGeometry width="160" relative="1" as="geometry">
            <mxPoint x="250" y="520" as="sourcePoint" />
            <mxPoint x="190" y="800" as="targetPoint" />
          </mxGeometry>
        </mxCell>
        <mxCell id="C9En-ip5KXFG1CEFs1mp-44" value="Sauvegarder des données" style="ellipse;whiteSpace=wrap;html=1;" vertex="1" parent="1">
          <mxGeometry x="260" y="590" width="180" height="80" as="geometry" />
        </mxCell>
        <mxCell id="C9En-ip5KXFG1CEFs1mp-45" value="" style="endArrow=none;html=1;rounded=0;" edge="1" parent="1" source="C9En-ip5KXFG1CEFs1mp-16">
          <mxGeometry width="50" height="50" relative="1" as="geometry">
            <mxPoint x="178.0440000000001" y="327.0400000000001" as="sourcePoint" />
            <mxPoint x="200" y="130" as="targetPoint" />
          </mxGeometry>
        </mxCell>
      </root>
    </mxGraphModel>
  </diagram>
</mxfile>
